:SAMPLES-PER-SECOND 30
:FULLY-SPECIFIED
:DEGREES
405
root  -15.2913 34.6942 -7.77719 -172.173 1.62175 179.364
RightUpLeg  -10.5667 -9.14025 1.16726
RightLeg  9.99243 2.87161 0.318433
RightFoot  2.33597 0.00733481 0.220059
RightToes  -26.0083 -0.117422 -0.223288
Spine  -2.15774 0.196221 0.260202
Spine1  -4.38835 0.462111 1.121
HEad  -64.6432 3.18715 5.06622
LeftShoulder1  -1.94126e-019 -3.10601e-018 -2.51263e-017
LeftArm  -11.2543 25.9616 -82.824
LeftForeArm  31.2447 -17.5607 -2.87319
LeftHand  -0.498088 -2.6416 7.41225
RightShoulder  -4.96962e-017 0 -2.36833e-017
RightArm  -25.3382 -24.2462 77.1471
RightForeArm  57.045 13.0933 1.36434
RightHand  -0.488927 -0.945551 -12.7244
LeftUpLeg  -9.16902 -5.02377 -1.40111
LeftLeg  8.8435 13.6746 1.22217
LeftFoot  2.46133 -0.0145582 0.742577
LeftToes  -16.2688 1.31424e-006 1.14295e-007
406
root  -15.282 34.6962 -7.81921 -172.103 1.59665 179.36
RightUpLeg  -10.589 -8.95759 1.1906
RightLeg  10.0118 2.66459 0.296466
RightFoot  2.41091 0.00726349 0.221078
RightToes  -25.1459 -0.111964 -0.216855
Spine  -2.13748 0.158358 0.226771
Spine1  -4.34796 0.385781 1.05888
HEad  -64.8959 3.25616 5.02561
LeftShoulder1  -1.94126e-019 -3.10601e-018 -2.51263e-017
LeftArm  -11.1939 25.9086 -82.7632
LeftForeArm  31.267 -17.589 -2.87516
LeftHand  -0.496811 -2.58046 7.45428
RightShoulder  -4.96962e-017 0 -2.36833e-017
RightArm  -25.2298 -24.2521 77.3324
RightForeArm  56.914 13.2308 1.34823
RightHand  -0.49002 -0.945991 -12.7531
LeftUpLeg  -9.11451 -4.9415 -1.39448
LeftLeg  8.70356 13.585 1.18121
LeftFoot  2.50395 -0.0149844 0.749202
LeftToes  -16.3683 1.31424e-006 1.14295e-007
407
root  -15.2755 34.7004 -7.86442 -172.011 1.53337 179.374
RightUpLeg  -10.5403 -9.02586 1.22283
RightLeg  9.87976 2.65497 0.289222
RightFoot  2.46508 0.00706938 0.223851
RightToes  -24.8111 -0.10987 -0.214334
Spine  -2.12481 0.123871 0.193369
Spine1  -4.32237 0.316606 0.997121
HEad  -65.0954 3.2375 5.04588
LeftShoulder1  -1.94126e-019 -3.10601e-018 -2.51263e-017
LeftArm  -11.0986 25.8412 -82.7185
LeftForeArm  31.2665 -17.6348 -2.88359
LeftHand  -0.498263 -2.64274 7.41743
RightShoulder  -4.96962e-017 0 -2.36833e-017
RightArm  -24.978 -24.2851 77.5243
RightForeArm  56.6633 13.4484 1.3225
RightHand  -0.495987 -0.87628 -12.6544
LeftUpLeg  -9.05013 -4.98627 -1.36984
LeftLeg  8.51458 13.5857 1.13659
LeftFoot  2.57291 -0.0160844 0.766299
LeftToes  -16.2567 1.31424e-006 1.14295e-007
408
root  -15.2706 34.7055 -7.90874 -171.909 1.45036 179.404
RightUpLeg  -10.4616 -9.1261 1.27043
RightLeg  9.66901 2.6947 0.283533
RightFoot  2.57686 0.0065487 0.23129
RightToes  -24.6907 -0.10987 -0.214334
Spine  -2.12242 0.0995907 0.161876
Spine1  -4.31719 0.268364 0.939448
HEad  -65.1995 3.15996 5.07333
LeftShoulder1  -1.94126e-019 -3.10601e-018 -2.51263e-017
LeftArm  -10.9563 25.7865 -82.6879
LeftForeArm  31.241 -17.74 -2.89949
LeftHand  -0.496831 -2.60385 7.44648
RightShoulder  -4.96962e-017 0 -2.36833e-017
RightArm  -24.5205 -24.3391 77.7127
RightForeArm  56.2169 13.7175 1.29169
RightHand  -0.501011 -0.804176 -12.5731
LeftUpLeg  -8.97564 -5.17113 -1.32414
LeftLeg  8.3269 13.7204 1.10287
LeftFoot  2.71255 -0.0187285 0.807395
LeftToes  -15.4766 1.31424e-006 1.14295e-007
409
root  -15.2654 34.7102 -7.95132 -171.806 1.33945 179.462
RightUpLeg  -10.3056 -9.2401 1.35364
RightLeg  9.30152 2.70652 0.267267
RightFoot  2.73469 0.00596702 0.239601
RightToes  -24.5413 -0.10987 -0.214334
Spine  -2.11955 0.0854505 0.137558
Spine1  -4.31103 0.240923 0.895084
HEad  -65.255 3.01321 5.13471
LeftShoulder1  -1.94126e-019 -3.10601e-018 -2.51263e-017
LeftArm  -10.8433 25.7145 -82.6844
LeftForeArm  31.2334 -17.8451 -2.91566
LeftHand  -0.497144 -2.64683 7.42219
RightShoulder  -4.96962e-017 0 -2.36833e-017
RightArm  -24.0245 -24.3818 77.8801
RightForeArm  55.7536 13.9665 1.26417
RightHand  -0.506806 -0.720736 -12.4626
LeftUpLeg  -8.94102 -5.16903 -1.25007
LeftLeg  8.1561 13.6196 1.05448
LeftFoot  2.75696 -0.0191197 0.813475
LeftToes  -15.5172 1.31424e-006 1.14295e-007
410
root  -15.2549 34.7133 -7.98559 -171.66 1.23753 179.511
RightUpLeg  -9.92969 -9.04723 1.41755
RightLeg  8.38648 2.45856 0.203359
RightFoot  3.12116 0.00555179 0.245534
RightToes  -24.5496 -0.10987 -0.214334
Spine  -2.12947 0.08229 0.101307
Spine1  -4.33085 0.236404 0.826039
HEad  -65.3799 2.85753 5.22394
LeftShoulder1  -1.94126e-019 -3.10601e-018 -2.51263e-017
LeftArm  -10.6573 25.6865 -82.6409
LeftForeArm  31.1195 -18.0705 -2.94567
LeftHand  -0.496758 -2.69373 7.42197
RightShoulder  -4.96962e-017 0 -2.36833e-017
RightArm  -23.6318 -24.3745 78.0779
RightForeArm  55.4401 14.1581 1.24313
RightHand  -0.512063 -0.667795 -12.3511
LeftUpLeg  -8.97802 -5.18298 -1.16803
LeftLeg  8.02448 13.5615 1.01905
LeftFoot  2.80345 -0.0196806 0.822193
LeftToes  -15.4397 1.31424e-006 1.14295e-007
411
root  -15.255 34.7186 -8.01963 -171.601 1.18338 179.565
RightUpLeg  -9.93112 -9.4394 1.50088
RightLeg  8.38554 2.73801 0.226301
RightFoot  3.0884 0.00463403 0.258647
RightToes  -24.4427 -0.10987 -0.214334
Spine  -2.11191 0.111428 0.0700787
Spine1  -4.29593 0.295725 0.765576
HEad  -65.562 2.65603 5.35918
LeftShoulder1  -1.94126e-019 -3.10601e-018 -2.51263e-017
LeftArm  -10.5468 25.6091 -82.6635
LeftForeArm  31.1258 -18.204 -2.9591
LeftHand  -0.494828 -2.64094 7.43056
RightShoulder  -4.96962e-017 0 -2.36833e-017
RightArm  -23.402 -24.2923 78.2458
RightForeArm  55.4893 14.2308 1.23282
RightHand  -0.509949 -0.668415 -12.4202
LeftUpLeg  -8.90404 -5.28785 -1.1119
LeftLeg  7.85749 13.6354 0.984956
LeftFoot  2.84398 -0.0205916 0.836353
LeftToes  -15.2617 1.31424e-006 1.14295e-007
412
root  -15.2473 34.7225 -8.04239 -171.468 1.14766 179.597
RightUpLeg  -9.6291 -9.41229 1.54638
RightLeg  7.59038 2.7378 0.188102
RightFoot  3.43015 0.00347287 0.275237
RightToes  -24.5578 -0.10987 -0.214334
Spine  -2.10774 0.14822 0.0211602
Spine1  -4.28762 0.371468 0.669702
HEad  -65.753 2.47262 5.43482
LeftShoulder1  -1.94126e-019 -3.10601e-018 -2.51263e-017
LeftArm  -10.3756 25.5483 -82.6056
LeftForeArm  31.06 -18.4279 -2.98974
LeftHand  -0.49597 -2.69538 7.3432
RightShoulder  -4.96962e-017 0 -2.36833e-017
RightArm  -23.1859 -24.1616 78.4434
RightForeArm  55.3522 14.2977 1.22615
RightHand  -0.511203 -0.685352 -12.3805
LeftUpLeg  -8.91697 -5.20397 -1.06014
LeftLeg  7.65899 13.4685 0.926685
LeftFoot  2.87241 -0.0204998 0.834925
LeftToes  -15.7781 1.31424e-006 1.14295e-007
